<svg width="63" height="62" viewBox="0 0 63 62" fill="none" xmlns="http://www.w3.org/2000/svg">
<g clip-path="url(#clip0_306_1701)">
<ellipse cx="31.037" cy="30.606" rx="30.9008" ry="30.4717" fill="#D9D9D9"/>
<path d="M31.0863 59.3343C30.1879 59.3308 29.4468 59.3291 28.709 59.2687C25.492 59.0051 22.3904 58.2762 19.4219 57.0187C17.0125 55.9981 14.7818 54.6828 12.7342 53.0716C11.2854 51.9315 9.9573 50.6683 8.75066 49.278C6.62938 46.8335 4.97727 44.119 3.76133 41.1373C3.21789 39.8048 3.62587 38.5458 4.72815 37.7232C6.25294 36.5853 7.73791 35.3958 9.24047 34.2293C10.5452 33.2164 11.8514 32.2052 13.156 31.192C14.5792 30.0868 16.0007 28.9795 17.4239 27.8745C18.7351 26.8564 20.0485 25.8409 21.3595 24.8224C22.7754 23.7224 24.1887 22.6188 25.6048 21.5189C26.9158 20.5007 28.2297 19.4861 29.5408 18.4682C30.7928 17.4961 32.0425 16.5211 33.294 15.5487C34.4466 14.6531 35.6009 13.7598 36.7536 12.8645C38.1637 11.7695 39.5724 10.6725 40.9828 9.5777C41.9584 8.82049 42.9106 8.03155 43.918 7.31764C45.2268 6.39021 46.9337 6.48897 48.2844 7.48043C49.9011 8.66713 51.3979 9.98361 52.7377 11.4665C55.7453 14.795 57.8784 18.5984 59.1032 22.8894C59.496 24.2656 59.7789 25.6647 59.9549 27.0822C60.0392 27.7608 60.0816 28.4453 60.1286 29.1288C60.1803 29.883 60.1739 30.6356 60.1601 31.3874C60.1421 32.3689 60.0477 33.3467 59.9209 34.3222C59.6694 36.2557 59.212 38.1393 58.5629 39.9791C57.5275 42.9144 56.0379 45.6099 54.1147 48.0727C52.8912 49.6394 51.5141 51.0642 49.9926 52.3563C47.8548 54.1718 45.503 55.6558 42.931 56.8018C40.9289 57.6939 38.8525 58.3595 36.6942 58.7783C35.6189 58.987 34.5371 59.1334 33.4456 59.2335C32.6065 59.3104 31.7676 59.3134 31.0861 59.334L31.0863 59.3343ZM54.1494 29.9444C54.1494 30.1349 54.143 30.3259 54.1509 30.5161C54.1635 30.8187 54.3234 30.9798 54.6276 31.0222C55.0655 31.0833 55.5036 31.1444 55.9402 31.2135C56.6127 31.3198 56.832 31.1501 56.8179 30.4817C56.805 29.87 56.7739 29.2585 56.7329 28.6471C56.6706 27.718 56.5408 26.7982 56.3575 25.8878C55.8325 23.2786 54.8911 20.8194 53.5343 18.5176C52.6912 17.0872 51.7194 15.7457 50.5893 14.5196C50.0448 13.929 49.262 13.897 48.6915 14.4221C48.1476 14.9228 48.1533 15.7054 48.6783 16.2761C49.0274 16.6556 49.3578 17.0539 49.672 17.462C50.7829 18.9047 51.7088 20.4548 52.4302 22.1215C53.5121 24.6211 54.0769 27.2303 54.1493 29.9443L54.1494 29.9444ZM56.5211 34.1747C56.5257 33.9232 56.3461 33.6996 56.1107 33.6652C55.6226 33.5936 55.1341 33.5234 54.6443 33.4655C54.1048 33.4019 53.932 33.5431 53.8468 34.0659C53.5794 35.7074 53.0947 37.2863 52.4351 38.8162C52.1415 39.4972 51.809 40.1581 51.4552 40.81C51.3081 41.081 51.3407 41.3231 51.5635 41.4714C52.0343 41.7853 52.5108 42.0913 52.9947 42.3851C53.2461 42.5379 53.5006 42.4587 53.6653 42.2102C53.7064 42.1482 53.7448 42.0843 53.7807 42.0193C54.8196 40.1382 55.6225 38.1683 56.1258 36.0813C56.2797 35.443 56.3992 34.7994 56.5213 34.1748L56.5211 34.1747ZM45.5986 48.2255C45.6107 48.6854 45.8316 49.0736 46.2801 49.3121C46.7454 49.5595 47.2145 49.5398 47.6471 49.2285C47.8767 49.0631 48.0869 48.8715 48.3034 48.6888C49.5727 47.6192 50.6901 46.4092 51.7158 45.1147C51.9093 44.8706 51.86 44.5503 51.6007 44.3805C51.1621 44.0934 50.7189 43.8125 50.2734 43.5357C50.0044 43.3685 49.7457 43.4223 49.5477 43.6665C49.1653 44.138 48.7725 44.6005 48.3623 45.0495C47.6523 45.827 46.877 46.5355 46.0662 47.2088C45.7631 47.4604 45.6062 47.7881 45.5985 48.2253L45.5986 48.2255Z" fill="#0263A0"/>
<path d="M1.90459 30.5171C1.89616 29.1043 2.01549 27.5881 2.26795 26.0874C3.05542 21.4039 4.89241 17.1545 7.80421 13.3638C10.8143 9.44543 14.6 6.4676 19.1379 4.42464C21.1011 3.54079 23.1466 2.8892 25.2679 2.47258C26.286 2.27263 27.3092 2.12198 28.3429 2.02322C29.5003 1.9126 30.6591 1.85143 31.8201 1.88873C33.3719 1.93847 34.9137 2.08668 36.4436 2.36667C38.096 2.66924 39.7077 3.10502 41.2838 3.67429C42.3425 4.05675 42.5707 5.22016 41.704 5.93592C40.8873 6.61038 40.0372 7.24611 39.1999 7.89642C38.0197 8.81313 36.8379 9.72799 35.6564 10.6431C34.2443 11.7369 32.8304 12.8287 31.4195 13.9243C30.2654 14.8204 29.1157 15.7221 27.962 16.6185C26.5513 17.7146 25.1378 18.8071 23.7267 19.9026C22.4273 20.9114 21.1298 21.9224 19.8309 22.9315C18.2288 24.1761 16.6252 25.4187 15.0234 26.6637C13.3953 27.9291 11.7693 29.1973 10.141 30.4625C8.22905 31.9482 6.31561 33.4319 4.40275 34.9166C3.96323 35.2576 3.47997 35.3326 2.96487 35.1195C2.44047 34.9024 2.16781 34.5037 2.104 33.9448C1.97784 32.8423 1.90139 31.7376 1.90459 30.5171Z" fill="#228C44"/>
<path d="M54.1494 29.9444C54.077 27.2305 53.5122 24.6212 52.4303 22.1216C51.7089 20.455 50.783 18.9048 49.6721 17.4621C49.3579 17.0541 49.0275 16.6558 48.6784 16.2763C48.1534 15.7056 48.1477 14.923 48.6916 14.4223C49.2621 13.8972 50.0449 13.9292 50.5894 14.5198C51.7195 15.7458 52.6913 17.0874 53.5344 18.5178C54.8912 20.8196 55.8326 23.2787 56.3576 25.888C56.5409 26.7985 56.6707 27.7183 56.733 28.6473C56.774 29.2586 56.8051 29.87 56.818 30.4818C56.8321 31.1503 56.6128 31.32 55.9403 31.2136C55.5036 31.1446 55.0656 31.0833 54.6277 31.0224C54.3234 30.9801 54.1635 30.8189 54.151 30.5163C54.1431 30.3261 54.1495 30.1353 54.1495 29.9446L54.1494 29.9444Z" fill="#FEFFFF"/>
<path d="M56.5211 34.1747C56.399 34.7993 56.2797 35.4429 56.1256 36.0812C55.6223 38.1682 54.8194 40.1381 53.7805 42.0191C53.7446 42.0842 53.7061 42.148 53.6651 42.2101C53.5005 42.4588 53.2461 42.5378 52.9945 42.385C52.5107 42.0912 52.0341 41.785 51.5633 41.4713C51.3407 41.3228 51.308 41.0807 51.455 40.8098C51.8088 40.1581 52.1415 39.4971 52.4349 38.816C53.0944 37.2862 53.5792 35.7073 53.8467 34.0658C53.9318 33.543 54.1046 33.4018 54.6442 33.4654C55.1341 33.5231 55.6225 33.5934 56.1105 33.6651C56.3458 33.6996 56.5255 33.923 56.521 34.1746L56.5211 34.1747Z" fill="#FEFFFF"/>
<path d="M45.5986 48.2255C45.6063 47.7883 45.7634 47.4605 46.0663 47.209C46.8772 46.5357 47.6524 45.8272 48.3624 45.0497C48.7726 44.6006 49.1654 44.1381 49.5478 43.6666C49.7458 43.4225 50.0045 43.3686 50.2735 43.5358C50.719 43.8127 51.1622 44.0934 51.6008 44.3807C51.8599 44.5503 51.9094 44.8706 51.7159 45.1149C50.6904 46.4092 49.5728 47.6193 48.3036 48.689C48.087 48.8715 47.8768 49.0633 47.6472 49.2287C47.2146 49.5399 46.7455 49.5597 46.2802 49.3123C45.8317 49.0739 45.6108 48.6855 45.5987 48.2256L45.5986 48.2255Z" fill="#FEFFFF"/>
</g>
<defs>
<clipPath id="clip0_306_1701">
<rect width="62.0741" height="61.2119" fill="white"/>
</clipPath>
</defs>
</svg>
