<svg width="20" height="19" viewBox="0 0 20 19" fill="none" xmlns="http://www.w3.org/2000/svg">
<g id="logos:google-icon" clip-path="url(#clip0_306_1489)">
<path id="Vector" d="M19.794 9.45425C19.794 8.71906 19.7279 8.18256 19.5849 7.62621H10.2861V10.9445H15.7443C15.6343 11.7691 15.0401 13.011 13.7195 13.8455L13.701 13.9566L16.6411 16.013L16.8448 16.0313C18.7155 14.4715 19.794 12.1765 19.794 9.45425Z" fill="#4285F4"/>
<path id="Vector_2" d="M10.2861 18.1972C12.9602 18.1972 15.2051 17.4023 16.8448 16.0313L13.7195 13.8456C12.8832 14.3721 11.7607 14.7397 10.2861 14.7397C7.66706 14.7397 5.44417 13.1799 4.65177 11.024L4.53562 11.0329L1.47846 13.169L1.43848 13.2693C3.06712 16.1902 6.4125 18.1972 10.2861 18.1972Z" fill="#34A853"/>
<path id="Vector_3" d="M4.65178 11.0241C4.4427 10.4677 4.3217 9.87154 4.3217 9.25559C4.3217 8.63958 4.4427 8.04349 4.64078 7.48713L4.63524 7.36864L1.53976 5.19827L1.43849 5.24177C0.767241 6.45387 0.38208 7.815 0.38208 9.25559C0.38208 10.6962 0.767241 12.0573 1.43849 13.2694L4.65178 11.0241Z" fill="#FBBC05"/>
<path id="Vector_4" d="M10.2861 3.77136C12.1458 3.77136 13.4003 4.49662 14.1157 5.10271L16.9108 2.63878C15.1941 1.19819 12.9602 0.313965 10.2861 0.313965C6.4125 0.313965 3.06712 2.32084 1.43848 5.24175L4.64077 7.48711C5.44417 5.3312 7.66706 3.77136 10.2861 3.77136Z" fill="#EB4335"/>
</g>
<defs>
<clipPath id="clip0_306_1489">
<rect width="19.4212" height="17.9449" fill="white" transform="translate(0.38208 0.313934)"/>
</clipPath>
</defs>
</svg>
