<svg width="44" height="45" viewBox="0 0 44 45" fill="none" xmlns="http://www.w3.org/2000/svg">
<g clip-path="url(#clip0_306_1507)">
<circle cx="21.9999" cy="22.6861" r="21.9035" fill="#D9D9D9"/>
<path d="M22.0349 43.3363C21.3981 43.3339 20.8728 43.3326 20.3498 43.2892C18.0695 43.0997 15.871 42.5758 13.7668 41.6719C12.059 40.9383 10.4778 39.9928 9.02638 38.8347C7.99944 38.0151 7.05801 37.1071 6.20271 36.1077C4.69908 34.3506 3.52801 32.3994 2.66611 30.2561C2.28091 29.2983 2.57009 28.3933 3.35143 27.802C4.43225 26.984 5.48484 26.1291 6.5499 25.2905C7.47474 24.5625 8.40061 23.8356 9.32535 23.1073C10.3342 22.3128 11.3417 21.5169 12.3505 20.7226C13.28 19.9908 14.2109 19.2609 15.1402 18.5288C16.1439 17.738 17.1457 16.9448 18.1494 16.1541C19.0787 15.4222 20.01 14.6929 20.9394 13.9612C21.8269 13.2625 22.7127 12.5617 23.5998 11.8626C24.4168 11.2189 25.235 10.5768 26.0521 9.93325C27.0516 9.14609 28.0501 8.35759 29.0498 7.57063C29.7413 7.02633 30.4163 6.45923 31.1304 5.94607C32.0581 5.27941 33.268 5.3504 34.2254 6.06308C35.3714 6.9161 36.4324 7.8624 37.3821 8.92829C39.5139 11.3209 41.0259 14.0548 41.8941 17.1393C42.1726 18.1285 42.3731 19.1342 42.4978 20.1531C42.5576 20.6409 42.5877 21.1329 42.6209 21.6242C42.6576 22.1663 42.6531 22.7073 42.6433 23.2477C42.6305 23.9532 42.5636 24.6562 42.4737 25.3573C42.2955 26.7471 41.9713 28.1011 41.5112 29.4236C40.7772 31.5335 39.7213 33.4711 38.3581 35.2414C37.4909 36.3676 36.5147 37.3917 35.4363 38.3205C33.9209 39.6255 32.2539 40.6922 30.4308 41.516C29.0116 42.1572 27.5398 42.6357 26.0099 42.9367C25.2478 43.0867 24.4809 43.192 23.7072 43.2639C23.1125 43.3192 22.5178 43.3213 22.0348 43.3361L22.0349 43.3363ZM38.3827 22.2105C38.3827 22.3475 38.3782 22.4847 38.3838 22.6215C38.3927 22.839 38.5061 22.9547 38.7217 22.9853C39.0321 23.0291 39.3426 23.0731 39.6521 23.1227C40.1288 23.1991 40.2843 23.0772 40.2743 22.5967C40.2651 22.157 40.243 21.7175 40.214 21.278C40.1698 20.6101 40.0778 19.949 39.9479 19.2946C39.5758 17.419 38.9085 15.6513 37.9468 13.9968C37.3491 12.9686 36.6603 12.0043 35.8592 11.1229C35.4733 10.6984 34.9184 10.6754 34.514 11.0529C34.1285 11.4128 34.1325 11.9753 34.5046 12.3856C34.7521 12.6583 34.9863 12.9447 35.209 13.238C35.9964 14.275 36.6528 15.3893 37.1641 16.5873C37.931 18.384 38.3313 20.2596 38.3826 22.2104L38.3827 22.2105ZM40.0639 25.2513C40.0671 25.0705 39.9398 24.9098 39.7729 24.885C39.427 24.8336 39.0807 24.7831 38.7335 24.7415C38.3511 24.6958 38.2286 24.7973 38.1683 25.1731C37.9787 26.353 37.6351 27.488 37.1676 28.5877C36.9595 29.0772 36.7238 29.5522 36.473 30.0208C36.3687 30.2156 36.3918 30.3896 36.5498 30.4963C36.8834 30.7219 37.2213 30.9419 37.5642 31.1531C37.7425 31.2629 37.9228 31.206 38.0396 31.0273C38.0687 30.9827 38.0959 30.9368 38.1214 30.8901C38.8578 29.538 39.4269 28.122 39.7837 26.6218C39.8928 26.163 39.9774 25.7004 40.064 25.2514L40.0639 25.2513ZM32.3217 35.3512C32.3302 35.6818 32.4868 35.9608 32.8047 36.1323C33.1345 36.3101 33.4671 36.2959 33.7737 36.0722C33.9365 35.9533 34.0854 35.8155 34.2389 35.6843C35.1386 34.9154 35.9307 34.0456 36.6577 33.1151C36.7948 32.9397 36.7599 32.7094 36.5761 32.5874C36.2652 32.381 35.9511 32.1791 35.6353 31.9801C35.4446 31.8599 35.2612 31.8986 35.1209 32.0741C34.8499 32.413 34.5714 32.7455 34.2807 33.0683C33.7774 33.6272 33.2279 34.1364 32.6531 34.6204C32.4383 34.8012 32.327 35.0368 32.3216 35.3511L32.3217 35.3512Z" fill="#0263A0"/>
<path d="M1.3499 22.6221C1.34393 21.6066 1.42851 20.5168 1.60746 19.438C2.16565 16.0715 3.46776 13.0169 5.53174 10.2922C7.66535 7.47556 10.3488 5.33506 13.5654 3.86655C14.957 3.23123 16.4069 2.76286 17.9105 2.46338C18.6322 2.31965 19.3575 2.21137 20.0902 2.14038C20.9106 2.06086 21.732 2.01689 22.5549 2.0437C23.6549 2.07946 24.7478 2.18599 25.8322 2.38725C27.0035 2.60475 28.1459 2.91799 29.2631 3.32719C30.0135 3.60211 30.1753 4.43838 29.561 4.95288C28.9821 5.43769 28.3795 5.89466 27.786 6.36211C26.9494 7.02106 26.1117 7.67867 25.2743 8.33649C24.2733 9.12273 23.2711 9.90753 22.271 10.695C21.4529 11.3392 20.638 11.9873 19.8202 12.6317C18.8202 13.4196 17.8183 14.2049 16.8181 14.9924C15.897 15.7175 14.9774 16.4442 14.0566 17.1695C12.921 18.0642 11.7843 18.9573 10.6489 19.8523C9.49485 20.7619 8.34232 21.6735 7.18815 22.5829C5.83287 23.6508 4.47657 24.7173 3.12067 25.7846C2.80913 26.0297 2.46658 26.0836 2.10146 25.9305C1.72975 25.7744 1.53648 25.4878 1.49125 25.0861C1.40183 24.2936 1.34764 23.4995 1.3499 22.6221Z" fill="#228C44"/>
<path d="M38.3828 22.2105C38.3315 20.2597 37.9311 18.3841 37.1642 16.5874C36.6529 15.3894 35.9966 14.2751 35.2091 13.2381C34.9864 12.9448 34.7522 12.6584 34.5048 12.3857C34.1326 11.9754 34.1286 11.4129 34.5141 11.053C34.9185 10.6755 35.4734 10.6985 35.8593 11.123C36.6604 12.0043 37.3493 12.9687 37.9469 13.9969C38.9086 15.6514 39.5759 17.4191 39.948 19.2947C40.0779 19.9492 40.1699 20.6103 40.2141 21.2781C40.2432 21.7175 40.2652 22.157 40.2744 22.5968C40.2844 23.0773 40.1289 23.1992 39.6522 23.1228C39.3427 23.0732 39.0322 23.0291 38.7218 22.9854C38.5061 22.9549 38.3928 22.8391 38.3839 22.6216C38.3784 22.4848 38.3829 22.3477 38.3829 22.2106L38.3828 22.2105Z" fill="#FEFFFF"/>
<path d="M40.0639 25.2513C39.9774 25.7003 39.8928 26.1629 39.7836 26.6217C39.4268 28.1218 38.8577 29.5379 38.1213 30.89C38.0958 30.9367 38.0685 30.9826 38.0395 31.0272C37.9228 31.206 37.7425 31.2628 37.5641 31.153C37.2212 30.9417 36.8834 30.7217 36.5497 30.4962C36.3918 30.3894 36.3687 30.2154 36.4729 30.0207C36.7237 29.5522 36.9595 29.0771 37.1675 28.5875C37.6349 27.4879 37.9786 26.3529 38.1682 25.173C38.2285 24.7972 38.351 24.6957 38.7335 24.7414C39.0807 24.7829 39.4269 24.8335 39.7729 24.8849C39.9397 24.9098 40.067 25.0704 40.0638 25.2512L40.0639 25.2513Z" fill="#FEFFFF"/>
<path d="M32.3218 35.3512C32.3272 35.0369 32.4386 34.8013 32.6533 34.6205C33.2281 34.1365 33.7776 33.6273 34.2809 33.0684C34.5716 32.7456 34.8501 32.4131 35.1211 32.0742C35.2615 31.8987 35.4448 31.86 35.6355 31.9802C35.9513 32.1792 36.2654 32.381 36.5763 32.5875C36.76 32.7094 36.7951 32.9397 36.6579 33.1152C35.931 34.0456 35.1389 34.9155 34.2391 35.6843C34.0856 35.8155 33.9367 35.9534 33.7739 36.0723C33.4673 36.296 33.1347 36.3102 32.805 36.1324C32.487 35.961 32.3304 35.6819 32.3219 35.3513L32.3218 35.3512Z" fill="#FEFFFF"/>
</g>
<defs>
<clipPath id="clip0_306_1507">
<rect width="44" height="44" fill="white" transform="translate(0 0.686035)"/>
</clipPath>
</defs>
</svg>
