<svg width="33" height="18" viewBox="0 0 33 18" fill="none" xmlns="http://www.w3.org/2000/svg">
<path d="M2.60478 0H14.2813C14.9007 0 15.4947 0.189642 15.9326 0.527208C16.3706 0.864773 16.6166 1.32261 16.6166 1.8C16.6166 2.27739 16.3706 2.73523 15.9326 3.07279C15.4947 3.41036 14.9007 3.6 14.2813 3.6H2.60478C1.98541 3.6 1.39142 3.41036 0.953466 3.07279C0.515511 2.73523 0.26947 2.27739 0.26947 1.8C0.26947 1.32261 0.515511 0.864773 0.953466 0.527208C1.39142 0.189642 1.98541 0 2.60478 0ZM18.9519 14.4H30.6285C31.2478 14.4 31.8418 14.5896 32.2798 14.9272C32.7177 15.2648 32.9638 15.7226 32.9638 16.2C32.9638 16.6774 32.7177 17.1352 32.2798 17.4728C31.8418 17.8104 31.2478 18 30.6285 18H18.9519C18.3326 18 17.7386 17.8104 17.3006 17.4728C16.8627 17.1352 16.6166 16.6774 16.6166 16.2C16.6166 15.7226 16.8627 15.2648 17.3006 14.9272C17.7386 14.5896 18.3326 14.4 18.9519 14.4ZM2.60478 7.2H30.6285C31.2478 7.2 31.8418 7.38964 32.2798 7.72721C32.7177 8.06477 32.9638 8.52261 32.9638 9C32.9638 9.47739 32.7177 9.93523 32.2798 10.2728C31.8418 10.6104 31.2478 10.8 30.6285 10.8H2.60478C1.98541 10.8 1.39142 10.6104 0.953466 10.2728C0.515511 9.93523 0.26947 9.47739 0.26947 9C0.26947 8.52261 0.515511 8.06477 0.953466 7.72721C1.39142 7.38964 1.98541 7.2 2.60478 7.2Z" fill="white"/>
</svg>
