<svg width="28" height="20" viewBox="0 0 28 20" fill="none" xmlns="http://www.w3.org/2000/svg">
<g id="logos:youtube-icon" clip-path="url(#clip0_306_1763)">
<path id="Vector" d="M26.5077 3.78665C26.3528 3.21386 26.0507 2.69167 25.6315 2.27207C25.2123 1.85247 24.6905 1.5501 24.1182 1.39508C22.023 0.823181 13.5903 0.823181 13.5903 0.823181C13.5903 0.823181 5.15724 0.840492 3.062 1.41239C2.48967 1.56742 1.96791 1.8698 1.54868 2.28942C1.12944 2.70904 0.827352 3.23126 0.672501 3.80407C0.038739 7.52997 -0.207109 13.2074 0.689903 16.7842C0.844771 17.357 1.14686 17.8792 1.5661 18.2988C1.98534 18.7184 2.50709 19.0208 3.0794 19.1758C5.17465 19.7477 13.6075 19.7477 13.6075 19.7477C13.6075 19.7477 22.0403 19.7477 24.1354 19.1758C24.7077 19.0208 25.2295 18.7184 25.6488 18.2988C26.068 17.8792 26.3701 17.357 26.525 16.7842C27.1935 13.0531 27.3994 7.37913 26.5077 3.78665Z" fill="#FF0000"/>
<path id="Vector_2" d="M10.9062 14.3406L17.9018 10.2854L10.9062 6.23016V14.3406Z" fill="white"/>
</g>
<defs>
<clipPath id="clip0_306_1763">
<rect width="27" height="19" fill="white" transform="translate(0.104004 0.823181)"/>
</clipPath>
</defs>
</svg>
